<svg xmlns="http://www.w3.org/2000/svg" width="412.621" height="660.938" viewBox="0 0 412.621 660.938">
  <defs>
    <style>
      .cls-1 {
        fill: #ffa117;
        fill-rule: evenodd;
      }
    </style>
  </defs>
  <path id="S.svg" class="cls-1" d="M723.829,249.954a174.6,174.6,0,0,0,38.422,46.313,282.854,282.854,0,0,0,53.172,35.859q29.507,15.516,58.515,27.735,28.478,12.21,55.453,25.187a254.706,254.706,0,0,1,47.828,29.5,144.317,144.317,0,0,1,33.581,37.141q12.705,20.625,12.72,48.078,0,51.913-32.566,82.687-32.578,30.8-96.672,30.782-39.187,0-67.672-8.907-28.5-8.905-49.094-26.453-20.625-17.554-34.859-44.265-14.25-26.719-24.422-62.329l-31.031,6.61q0,8.671,1.015,27.234t2.547,39.672q1.524,21.117,3.047,40.953,1.524,19.852,2.547,31.047,11.7,8.649,29.516,16.781a288.3,288.3,0,0,0,39.687,14.5,367.061,367.061,0,0,0,46.8,10.188,337.565,337.565,0,0,0,50.891,3.812,332.157,332.157,0,0,0,47.812-3.812,289.7,289.7,0,0,0,52.406-12.985,257.963,257.963,0,0,0,50.891-24.156,185.194,185.194,0,0,0,43.5-37.14q19.08-22.125,30.52-51.907,11.43-29.764,11.45-68.437,0-35.109-14.5-61.3a164.149,164.149,0,0,0-38.42-46.3,284.569,284.569,0,0,0-54.441-35.625q-30.515-15.516-62.578-29.766-27.984-12.187-54.437-25.171a279.291,279.291,0,0,1-47.313-29.016,140.013,140.013,0,0,1-33.578-36.125q-12.726-20.086-12.719-47.063,0-27.984,11.188-47.828a102.225,102.225,0,0,1,28.5-32.562,114.039,114.039,0,0,1,37.891-18.312,150.87,150.87,0,0,1,39.437-5.594,199.618,199.618,0,0,1,45.531,4.844,107.985,107.985,0,0,1,37.141,16.281,111.345,111.345,0,0,1,29,30.015q12.465,18.563,21.64,46.031l32.05-5.078q0-11.2-.77-26.718t-1.78-32.047q-1.02-16.547-2.29-32.828-1.275-16.266-2.29-30.016A373.944,373.944,0,0,0,994.766,5.486,497.913,497.913,0,0,0,927.86,1.157q-18.329,0-41.469,4.578a262.3,262.3,0,0,0-47.562,14.5,285.076,285.076,0,0,0-47.578,24.937A195.258,195.258,0,0,0,749.782,81.3a174.348,174.348,0,0,0-29.516,48.328q-11.2,27.234-11.187,61.313Q709.079,224.01,723.829,249.954Z" transform="translate(-687.219 -1.156)"/>
</svg>
