<svg xmlns="http://www.w3.org/2000/svg" xmlns:xlink="http://www.w3.org/1999/xlink" width="1584" height="304" viewBox="0 0 1584 304">
  <defs>
    <style>
      .cls-1 {
        fill: url(#linear-gradient);
      }

      .cls-2 {
        fill: #bbbec2;
        stroke: #ffa117;
        stroke-linejoin: round;
        stroke-width: 4px;
        fill-rule: evenodd;
      }
    </style>
    <linearGradient id="linear-gradient" x1="792" y1="31" x2="792" gradientUnits="userSpaceOnUse">
      <stop offset="0" stop-color="#ffa117"/>
      <stop offset="1" stop-color="#ffa117"/>
    </linearGradient>
  </defs>
  <rect id="Rectangle_arrondi_1" data-name="Rectangle arrondi 1" class="cls-1" width="1584" height="31" rx="10" ry="10"/>
  <path id="UPPORTINI.svg" class="cls-2" d="M196.729,136.68v-7.089q-1.911,0-6.134.137t-8.929.272q-4.7.138-9.064,0.273t-6.543.136q-3.272,0-7.7-.136T149.292,130q-4.635-.133-8.928-0.272t-7.293-.137v7.089l12.405,0.409a26.716,26.716,0,0,1,5.179.681,7.774,7.774,0,0,1,3.681,2.045,9.887,9.887,0,0,1,2.317,4.226,28.426,28.426,0,0,1,.954,7.088q0.272,5.59.477,11.518t0.341,12.541q0.135,6.614.2,14.176T158.7,205.79v29.852q0,14.859-4.5,24.877a44.088,44.088,0,0,1-11.859,16.153,45.063,45.063,0,0,1-16.7,8.792,69.614,69.614,0,0,1-19.152,2.658q-28.216,0-41.3-13.086T52.1,236.6V189.978q0-7.224.136-13.972t0.273-12q0.134-5.245.341-8.724t0.341-4.157q0.543-8.041,3.135-10.837t8.315-3.067l9.269-.545v-7.089l-15.676.546q-7.77.274-17.857,0.272-2.045,0-6.475-.136T24.363,130q-5.112-.133-9.951-0.272t-7.838-.137v7.089l9.542,0.545a18.81,18.81,0,0,1,4.771.75,7.024,7.024,0,0,1,3.135,1.976,9.4,9.4,0,0,1,1.908,3.681,35.918,35.918,0,0,1,1.09,5.861,48.092,48.092,0,0,1,.477,5.657q0.2,4.293.341,10.087t0.2,12.336q0.067,6.543.068,12.405V239.05a79.84,79.84,0,0,0,4.362,27.4,51.306,51.306,0,0,0,13.154,20.242,57.643,57.643,0,0,0,22.014,12.541q13.22,4.293,31.079,4.293A101.831,101.831,0,0,0,129.6,299.1a67.262,67.262,0,0,0,23.991-13.086,58.762,58.762,0,0,0,15.54-21.332q5.52-12.678,5.52-29.035V198.565q0-9.815.068-20.651t0.478-21.469a88.629,88.629,0,0,1,.886-10.019,14.34,14.34,0,0,1,1.908-5.657,6.1,6.1,0,0,1,3.271-2.522,20.7,20.7,0,0,1,5.112-.749Zm127.259,12.472Q335.1,159.58,335.1,178.118a71.02,71.02,0,0,1-.681,9.61,40.441,40.441,0,0,1-2.659,9.815,40.024,40.024,0,0,1-5.452,9.337,36.352,36.352,0,0,1-9,8.111,55.223,55.223,0,0,1-13.358,6.134,85.641,85.641,0,0,1-18.47,3.476l-0.682,2.045a8.9,8.9,0,0,1,1.363,2.453q0.818,1.911,1.227,3a120.578,120.578,0,0,0,27.944-3.2,70.659,70.659,0,0,0,23.923-10.36,53.729,53.729,0,0,0,16.7-18.4q6.269-11.246,6.27-27.467a45.26,45.26,0,0,0-3.476-18.129,32.693,32.693,0,0,0-11.041-13.563q-7.566-5.521-19.425-8.452t-28.625-2.931q-6.681,0-12.064.2t-10.291.409q-4.908.2-9.951,0.341t-10.905.136q-2.182,0-6.747-.136t-9.2-.409l-11.723-.546v7.089l8.86,0.545a24.3,24.3,0,0,1,5.044.682,6.518,6.518,0,0,1,3.339,2.044,10.807,10.807,0,0,1,2.045,4.158,49.677,49.677,0,0,1,1.295,7.02q0.133,0.818.341,4.771t0.409,9.541q0.2,5.592.34,12.132t0.137,12.405v40.893q0,18.948-.205,31.079T249.9,279.943q-0.274,8.044-3.544,10.837a14.1,14.1,0,0,1-8.724,3.067l-11.177.818v7.088l15.13-.409q6-.137,11.587-0.272t7.906-.137q1.77,0,4.43.069t5.861,0.136q3.2,0.067,6.611.136t6.68,0.068l16.357,0.409v-7.088l-14.449-.545a19.609,19.609,0,0,1-5.112-.818,7.353,7.353,0,0,1-3.476-2.317,11.478,11.478,0,0,1-2.112-4.294,33.55,33.55,0,0,1-1.023-6.748q-0.274-5.178-.409-16.9t-0.136-32.17V189.978q0-5.726.068-12.882t0.2-14.244q0.133-7.086.272-13.359t0.273-10.223q1.907-.135,4.226-0.273t4.566-.2q2.249-.068,4.158-0.069h3Q312.877,138.724,323.988,149.152Zm159.65,0q11.108,10.428,11.109,28.966a71.02,71.02,0,0,1-.681,9.61,40.483,40.483,0,0,1-2.658,9.815,40.063,40.063,0,0,1-5.453,9.337,36.364,36.364,0,0,1-9,8.111,55.231,55.231,0,0,1-13.359,6.134,85.641,85.641,0,0,1-18.47,3.476l-0.682,2.045a8.9,8.9,0,0,1,1.363,2.453q0.819,1.911,1.227,3a120.578,120.578,0,0,0,27.944-3.2,70.651,70.651,0,0,0,23.923-10.36,53.719,53.719,0,0,0,16.7-18.4q6.269-11.246,6.27-27.467a45.26,45.26,0,0,0-3.476-18.129,32.686,32.686,0,0,0-11.041-13.563q-7.565-5.521-19.424-8.452t-28.626-2.931q-6.679,0-12.063.2t-10.292.409q-4.907.2-9.951,0.341t-10.9.136q-2.181,0-6.747-.136t-9.2-.409l-11.723-.546v7.089l8.86,0.545a24.3,24.3,0,0,1,5.044.682,6.518,6.518,0,0,1,3.339,2.044,10.793,10.793,0,0,1,2.045,4.158,49.533,49.533,0,0,1,1.3,7.02q0.135,0.818.341,4.771t0.409,9.541q0.2,5.592.341,12.132t0.136,12.405v40.893q0,18.948-.2,31.079t-0.477,17.993q-0.274,8.044-3.544,10.837a14.1,14.1,0,0,1-8.724,3.067l-11.177.818v7.088l15.13-.409q6-.137,11.587-0.272t7.906-.137q1.77,0,4.43.069t5.861,0.136q3.2,0.067,6.612.136t6.679,0.068l16.357,0.409v-7.088l-14.449-.545a19.594,19.594,0,0,1-5.111-.818,7.348,7.348,0,0,1-3.476-2.317,11.464,11.464,0,0,1-2.113-4.294,33.55,33.55,0,0,1-1.023-6.748q-0.274-5.178-.409-16.9t-0.136-32.17V189.978q0-5.726.068-12.882t0.205-14.244q0.134-7.086.272-13.359t0.273-10.223q1.908-.135,4.226-0.273t4.566-.2q2.25-.068,4.158-0.069h3Q472.526,138.724,483.638,149.152Zm76.1,103.6A78.188,78.188,0,0,0,577.8,278.785,85.447,85.447,0,0,0,605.6,296.3a96.245,96.245,0,0,0,35.782,6.407,117.664,117.664,0,0,0,26.308-2.931,111.967,111.967,0,0,0,24.264-8.52,104.878,104.878,0,0,0,21.06-13.563,89.031,89.031,0,0,0,16.562-18.061,84.852,84.852,0,0,0,10.837-22.014A82.038,82.038,0,0,0,744.3,212.06a85.509,85.509,0,0,0-11.314-42.734,83.809,83.809,0,0,0-13.154-17.243,81.195,81.195,0,0,0-17.312-13.29,88.045,88.045,0,0,0-20.924-8.588,90.8,90.8,0,0,0-23.854-3.067,112.035,112.035,0,0,0-26.445,3.135,113.2,113.2,0,0,0-24.536,9,109.387,109.387,0,0,0-21.4,14.176,93,93,0,0,0-16.9,18.743,90.285,90.285,0,0,0-11.109,22.628,81.966,81.966,0,0,0-4.021,25.831A80.5,80.5,0,0,0,559.734,252.749Zm25.695-73.472q5.793-13.833,15.131-22.355a56.307,56.307,0,0,1,21.2-12.268,79.2,79.2,0,0,1,23.991-3.749,71.772,71.772,0,0,1,17.721,2.25,72.545,72.545,0,0,1,16.971,6.679,73.7,73.7,0,0,1,15.2,11.109,69.842,69.842,0,0,1,12.268,15.472,79.018,79.018,0,0,1,8.111,19.7,92.344,92.344,0,0,1,2.931,23.991q0,15.267-3.749,26.376a64.254,64.254,0,0,1-9.746,18.879A52.637,52.637,0,0,1,691.889,277.9a73.082,73.082,0,0,1-15.335,7.429,77.854,77.854,0,0,1-15,3.612,96.642,96.642,0,0,1-12.4.954,60.911,60.911,0,0,1-12.2-1.5,73.649,73.649,0,0,1-14.926-4.976,76.93,76.93,0,0,1-15.335-9.269,64.788,64.788,0,0,1-13.563-14.313,74.639,74.639,0,0,1-9.746-20.037,85.6,85.6,0,0,1-3.749-26.513Q579.636,193.115,585.429,179.277Zm234.935,10.7q0-5.726.068-12.882t0.2-14.244q0.135-7.086.273-13.359t0.273-10.223h3q1.5,0,3-.137,2.454-.133,5.044-0.136h4.5a75,75,0,0,1,18.061,2.045,40.536,40.536,0,0,1,14.245,6.406,29.708,29.708,0,0,1,9.337,11.246,37.656,37.656,0,0,1,3.34,16.562q0,21.54-10.019,32.647t-31.011,11.382h-4.157q-2.525,0-5.385-.068t-5.725-.205q-2.862-.133-5.043-0.273V189.978Zm0.272,83.218q-0.137-4.157-.2-10.36t-0.068-14.449V229.372l23.173-.818a89.849,89.849,0,0,1,10.5,11.518q5.859,7.431,12.4,16.835,1.5,1.91,2.931,3.816t2.931,4.226q6.543,9.133,12.4,16.221a92.079,92.079,0,0,0,11.723,12,47.575,47.575,0,0,0,12,7.5,33.669,33.669,0,0,0,13.222,2.59,95.883,95.883,0,0,0,12.4-.818,102.482,102.482,0,0,0,12.132-2.317l-0.273-6.271h-3a27.342,27.342,0,0,1-14.245-4.225,77.02,77.02,0,0,1-13.835-10.837,153.843,153.843,0,0,1-13.222-14.654q-6.409-8.041-12.268-15.676-5.726-7.361-10.633-13.29a122.41,122.41,0,0,0-10.087-10.837,82.247,82.247,0,0,0,15.2-7.361,50.842,50.842,0,0,0,21.469-26.444,59.286,59.286,0,0,0,3.272-20.583,37.332,37.332,0,0,0-3.476-16.017,34.554,34.554,0,0,0-10.633-12.881,54.35,54.35,0,0,0-18.061-8.588,93.306,93.306,0,0,0-25.627-3.135q-7.227,0-13.222.2t-11.723.409q-5.726.206-11.586,0.341t-12.677.136q-2.183,0-5.725-.136T788.467,130q-3.817-.133-7.5-0.272t-6.134-.137v7.089l8.86,0.545a23.151,23.151,0,0,1,4.975.682,6.14,6.14,0,0,1,3.2,2.044,11.468,11.468,0,0,1,1.976,4.158,49.533,49.533,0,0,1,1.295,7.02q0.134,0.818.341,4.771t0.409,9.541q0.2,5.592.341,12.132t0.136,12.405v40.893q0,18.948-.341,31.079t-0.613,17.993q-0.548,8.044-3,10.7t-7.5,2.931l-12.4,1.09v7.088q3.406,0,8.452-.136t10.087-.273q5.042-.137,9.4-0.272t6.407-.137q3.543,0,9.133.137t11.382,0.272q5.792,0.135,11.109.273t8.315,0.136v-7.088l-13.9-.545a22.612,22.612,0,0,1-5.248-.75,7.785,7.785,0,0,1-3.544-2.113,9.739,9.739,0,0,1-2.181-4.225,35.915,35.915,0,0,1-1.022-7.089Q820.771,277.356,820.636,273.2Zm200.1-132.563v90.238q0,10.089-.07,17.925t-0.13,13.768q-0.075,5.929-.28,10.223t-0.47,7.156a37.024,37.024,0,0,1-1.23,7.02,12.357,12.357,0,0,1-2.11,4.226,6.819,6.819,0,0,1-3.21,2.181,17.767,17.767,0,0,1-4.49.75l-15.953.545v7.088q3.27,0,8.793-.136t11.31-.273c3.86-.091,7.48-0.183,10.84-0.272s5.77-.137,7.22-0.137q1.77,0,4.5.069t5.93,0.136c2.14,0.045,4.38.089,6.75,0.136s4.68,0.068,6.95.068l16.9,0.409v-7.088l-14.17-.545a29.025,29.025,0,0,1-5.32-.682,8.608,8.608,0,0,1-3.95-2.044,9.617,9.617,0,0,1-2.52-4.226,26.223,26.223,0,0,1-1.03-7.225q-0.135-4.632-.2-8.519t-0.07-8.383V140.633h17.86a161.787,161.787,0,0,1,19.97,1.022q7.965,1.023,11.52,2.522a15.417,15.417,0,0,1,4.63,3.885,24.024,24.024,0,0,1,3.14,5.111,37.476,37.476,0,0,1,1.97,5.521q0.75,2.8,1.16,5.112l1.36,8.178,9.27-.408q0-2.863-.06-8.315-0.075-5.451-.21-11.587T1115,139.747q-0.21-5.793-.48-9.338l-3.4-1.5a61.847,61.847,0,0,1-6.62.886q-3.885.342-9.33,0.477t-12.61.136h-81.99q-9.14,0-15.611-.2t-11.11-.545q-4.635-.339-7.906-0.75t-5.861-.954l-3.272,2.453q-0.408,3.138-.886,6.884t-0.954,7.77q-0.48,4.022-1.022,8.042t-1.091,7.7q-0.409,3.137-.75,6t-0.613,4.771l9.133,0.408,1.09-7.5a34.538,34.538,0,0,1,4.158-11.791,20.275,20.275,0,0,1,9.337-8.519,45.439,45.439,0,0,1,10.5-2.522,133.317,133.317,0,0,1,18.542-1.022h16.49ZM1206.76,294.12a19.2,19.2,0,0,1-4.98-.818,7.994,7.994,0,0,1-3.54-2.249,10.245,10.245,0,0,1-2.18-4.294,34.878,34.878,0,0,1-1.02-6.816q-0.285-5.178-.41-16.9t-0.14-32.17V189.978q0-5.861.14-12.4t0.34-12.2c0.13-3.77.25-6.973,0.34-9.61s0.18-4.178.27-4.634a48.879,48.879,0,0,1,1.3-6.884,11.266,11.266,0,0,1,1.97-4.158,6.542,6.542,0,0,1,3.14-2.112,18.762,18.762,0,0,1,4.77-.75l11.72-.545v-7.089q-8.175.276-16.83,0.546-8.67.274-18.88,0.272c-1.37,0-3.66-.021-6.89-0.068s-6.7-.113-10.42-0.2-7.41-.181-11.05-0.273-6.59-.181-8.86-0.273v7.089l12.27,0.545a19.294,19.294,0,0,1,4.91.75,6.965,6.965,0,0,1,3.2,2.112,10.705,10.705,0,0,1,2.05,4.158,64.8,64.8,0,0,1,1.43,6.884c0.09,0.545.2,2.136,0.34,4.771s0.25,5.816.34,9.541,0.18,7.77.27,12.132,0.14,8.5.14,12.405v40.893q0,18.948-.14,31.079t-0.41,17.993a34.878,34.878,0,0,1-1.02,6.816,10.245,10.245,0,0,1-2.18,4.294,7.972,7.972,0,0,1-3.68,2.249,21.456,21.456,0,0,1-5.25.818l-12.54.545v7.088c3.55-.091,7.11-0.183,10.7-0.272s7.07-.183,10.43-0.273,6.54-.16,9.54-0.2,5.64-.069,7.91-0.069c1.45,0,3.59.022,6.4,0.069s5.87,0.113,9.14.2l10.02,0.273q5.1,0.134,9.06.272v-7.088Zm222.21,8.86a18.957,18.957,0,0,1,2.45-.818c1-.272,2.07-0.524,3.2-0.749s2.23-.456,3.28-0.682,1.97-.43,2.79-0.613q-0.27-5.179-.41-9.815t-0.14-10.087V199.179q0-7.566.14-15.744t0.27-16.494q0.135-8.313.41-15.812,0.27-7.9,2.86-10.769t8.59-3.135l9.82-.545v-7.089l-12.95.409c-1.73.092-3.46,0.16-5.18,0.205s-3.37.091-4.91,0.136-2.95.068-4.23,0.068h-2.86q-3,0-6.95-.068c-2.64-.045-5.36-0.113-8.18-0.2s-5.63-.181-8.45-0.273-5.41-.181-7.77-0.273v7.089l12,0.545a24.984,24.984,0,0,1,4.97.682,8.177,8.177,0,0,1,3.68,2.044,9.588,9.588,0,0,1,2.39,4.158,27.719,27.719,0,0,1,.95,7.02q0.27,7.361.48,16.63t0.41,18.4q0.195,9.133.27,16.971,0.06,7.839.07,12.472v51.254L1292.79,129.591q-1.23.138-3.27,0.273c-1.36.092-2.75,0.183-4.16,0.273s-2.79.159-4.16,0.2-2.45.068-3.27,0.068c-1.91,0-4.15-.044-6.74-0.136l-7.91-.273q-4.02-.133-7.7-0.272c-2.46-.09-4.5-0.137-6.14-0.137v7.089l8.18,0.545a22.594,22.594,0,0,1,6.27,1.431,14.554,14.554,0,0,1,5.25,3.476,17.024,17.024,0,0,1,3.61,5.93,26.568,26.568,0,0,1,1.5,8.656q0.135,4.089.28,9.405,0.12,5.316.2,10.973,0.06,5.658.14,11.45,0.06,5.8.06,10.973v45.8q0,5.864-.06,11.859t-0.28,11.859c-0.13,3.909-.34,7.544-0.61,10.9a53.528,53.528,0,0,1-.82,7.157,8.919,8.919,0,0,1-1.77,4.089,6.336,6.336,0,0,1-3.2,1.977,22.959,22.959,0,0,1-4.98.681l-10.36.818v7.088q1.77,0,5.93-.136t8.79-.273c3.09-.091,6.05-0.183,8.86-0.272s4.91-.137,6.27-0.137q3.135,0,7.43.137c2.87,0.089,5.77.181,8.73,0.272s5.79,0.181,8.52.273,4.99,0.136,6.81.136v-7.088l-11.99-.545a24.153,24.153,0,0,1-4.84-.682,8.139,8.139,0,0,1-3.68-2.044,9.94,9.94,0,0,1-2.46-4.226,26.659,26.659,0,0,1-1.02-7.225q-0.27-7.9-.48-14.721t-0.34-13.972q-0.135-7.156-.2-15.2t-0.07-18.538V158.9Zm125.69-8.86a19.2,19.2,0,0,1-4.98-.818,7.994,7.994,0,0,1-3.54-2.249,10.362,10.362,0,0,1-2.18-4.294,34.878,34.878,0,0,1-1.02-6.816q-0.285-5.178-.41-16.9t-0.14-32.17V189.978q0-5.861.14-12.4t0.34-12.2c0.13-3.77.25-6.973,0.34-9.61s0.18-4.178.27-4.634a48.879,48.879,0,0,1,1.3-6.884,11.59,11.59,0,0,1,1.97-4.158,6.542,6.542,0,0,1,3.14-2.112,18.762,18.762,0,0,1,4.77-.75l11.72-.545v-7.089q-8.175.276-16.83,0.546t-18.88.272q-2.04,0-6.89-.068c-3.22-.045-6.7-0.113-10.42-0.2s-7.41-.181-11.04-0.273-6.59-.181-8.86-0.273v7.089l12.26,0.545a19.294,19.294,0,0,1,4.91.75,6.965,6.965,0,0,1,3.2,2.112,10.705,10.705,0,0,1,2.05,4.158,64.8,64.8,0,0,1,1.43,6.884c0.09,0.545.2,2.136,0.34,4.771s0.25,5.816.34,9.541,0.18,7.77.27,12.132,0.14,8.5.14,12.405v40.893q0,18.948-.14,31.079t-0.4,17.993a35.572,35.572,0,0,1-1.03,6.816,10.245,10.245,0,0,1-2.18,4.294,7.972,7.972,0,0,1-3.68,2.249,21.456,21.456,0,0,1-5.25.818l-12.54.545v7.088c3.55-.091,7.11-0.183,10.7-0.272s7.07-.183,10.43-0.273,6.54-.16,9.54-0.2,5.64-.069,7.91-0.069q2.175,0,6.41.069c2.81,0.044,5.86.113,9.13,0.2l10.02,0.273q5.115,0.134,9.06.272v-7.088Z"/>
</svg>
