<svg xmlns="http://www.w3.org/2000/svg" xmlns:xlink="http://www.w3.org/1999/xlink" width="1733" height="1095" viewBox="0 0 1733 1095">
  <defs>
    <style>
      .cls-1 {
        fill: #ffa117;
      }

      .cls-1, .cls-3 {
        fill-rule: evenodd;
      }

      .cls-2 {
        fill: url(#linear-gradient);
      }

      .cls-3 {
        fill: #bbbec2;
        stroke: #ffa117;
        stroke-linejoin: round;
        stroke-width: 4px;
      }
    </style>
    <linearGradient id="linear-gradient" x1="863" y1="802" x2="863" y2="771" gradientUnits="userSpaceOnUse">
      <stop offset="0" stop-color="#ffa117"/>
      <stop offset="1" stop-color="#ffa117"/>
    </linearGradient>
  </defs>
  <path id="S.svg" class="cls-1" d="M723.829,249.954a174.6,174.6,0,0,0,38.422,46.313,282.854,282.854,0,0,0,53.172,35.859q29.507,15.516,58.515,27.735,28.478,12.21,55.453,25.187a254.706,254.706,0,0,1,47.828,29.5,144.317,144.317,0,0,1,33.581,37.141q12.705,20.625,12.72,48.078,0,51.913-32.566,82.687-32.578,30.8-96.672,30.782-39.187,0-67.672-8.907-28.5-8.905-49.094-26.453-20.625-17.554-34.859-44.265-14.25-26.719-24.422-62.329l-31.031,6.61q0,8.671,1.015,27.234t2.547,39.672q1.524,21.117,3.047,40.953,1.524,19.852,2.547,31.047,11.7,8.649,29.516,16.781a288.3,288.3,0,0,0,39.687,14.5,367.061,367.061,0,0,0,46.8,10.188,337.565,337.565,0,0,0,50.891,3.812,332.157,332.157,0,0,0,47.812-3.812,289.7,289.7,0,0,0,52.406-12.985,257.963,257.963,0,0,0,50.891-24.156,185.194,185.194,0,0,0,43.5-37.14q19.08-22.125,30.52-51.907,11.43-29.764,11.45-68.437,0-35.109-14.5-61.3a164.149,164.149,0,0,0-38.42-46.3,284.569,284.569,0,0,0-54.441-35.625q-30.515-15.516-62.578-29.766-27.984-12.187-54.437-25.171a279.291,279.291,0,0,1-47.313-29.016,140.013,140.013,0,0,1-33.578-36.125q-12.726-20.086-12.719-47.063,0-27.984,11.188-47.828a102.225,102.225,0,0,1,28.5-32.562,114.039,114.039,0,0,1,37.891-18.312,150.87,150.87,0,0,1,39.437-5.594,199.618,199.618,0,0,1,45.531,4.844,107.985,107.985,0,0,1,37.141,16.281,111.345,111.345,0,0,1,29,30.015q12.465,18.563,21.64,46.031l32.05-5.078q0-11.2-.77-26.718t-1.78-32.047q-1.02-16.547-2.29-32.828-1.275-16.266-2.29-30.016A373.944,373.944,0,0,0,994.766,5.486,497.913,497.913,0,0,0,927.86,1.157q-18.329,0-41.469,4.578a262.3,262.3,0,0,0-47.562,14.5,285.076,285.076,0,0,0-47.578,24.937A195.258,195.258,0,0,0,749.782,81.3a174.348,174.348,0,0,0-29.516,48.328q-11.2,27.234-11.187,61.313Q709.079,224.01,723.829,249.954Z"/>
  <rect id="Rectangle_arrondi_1" data-name="Rectangle arrondi 1" class="cls-2" x="71" y="771" width="1584" height="31" rx="10" ry="10"/>
  <path id="Supportini.svg" class="cls-1" d="M68.613,980.039q26.445,11.6,35.3,18.107a54.35,54.35,0,0,1,13.937,14.544,34.466,34.466,0,0,1,5.086,18.82q0,19.125-11.19,30.62t-33.366,11.5q-27.266,0-42.42-14.45t-22.074-42.72L0.457,1019.3q0,5.505,1.424,27.27t2.645,32.35q8.95,7.32,27.568,11.59a176.419,176.419,0,0,0,39.571,4.27A113.193,113.193,0,0,0,121.1,1083.7q23.193-11.085,34.688-29.4t11.5-41.71a65.536,65.536,0,0,0-14.852-42.521q-14.853-18.311-46.59-31.941Q77.157,925.921,67.9,919.919A55.859,55.859,0,0,1,53.252,906.7a27.28,27.28,0,0,1-5.391-16.785,35.64,35.64,0,0,1,12.207-27.669,41.757,41.757,0,0,1,28.89-10.987q38.653,0,50.455,40.08l14.649-2.238q0-20.142-3.052-51.88Q129.647,830.5,98.723,830.5q-21.772,0-44.352,10.987t-34.18,28.483a68.828,68.828,0,0,0-11.6,38.859q0,45.37,60.018,71.208h0Z"/>
  <path id="UPPORTINI.svg" class="cls-3" d="M362.174,907.68v-7.089q-1.909,0-6.134.137t-8.928.272q-4.7.138-9.065,0.273t-6.543.136q-3.272,0-7.7-.136L314.738,901q-4.637-.134-8.929-0.272t-7.292-.137v7.089l12.4,0.409a26.728,26.728,0,0,1,5.18.681,7.775,7.775,0,0,1,3.68,2.045,9.9,9.9,0,0,1,2.318,4.226,28.473,28.473,0,0,1,.954,7.088q0.271,5.59.477,11.518t0.341,12.541q0.134,6.614.2,14.176t0.068,16.426v29.85q0,14.865-4.5,24.88a44.1,44.1,0,0,1-11.859,16.15,45.022,45.022,0,0,1-16.7,8.79,69.318,69.318,0,0,1-19.152,2.66q-28.216,0-41.3-13.08-13.086-13.1-13.086-38.44V960.978q0-7.224.137-13.972t0.272-12q0.135-5.245.341-8.724t0.341-4.157q0.543-8.041,3.135-10.837t8.315-3.067l9.269-.545v-7.089l-15.676.546q-7.768.275-17.856,0.272-2.046,0-6.475-.136T189.808,901q-5.112-.134-9.951-0.272t-7.838-.137v7.089l9.542,0.545a18.816,18.816,0,0,1,4.771.75,7.021,7.021,0,0,1,3.135,1.976,9.407,9.407,0,0,1,1.909,3.681,36.043,36.043,0,0,1,1.09,5.861,48.054,48.054,0,0,1,.477,5.657q0.2,4.293.341,10.087t0.2,12.336q0.067,6.543.069,12.4v49.072a79.848,79.848,0,0,0,4.362,27.4,51.289,51.289,0,0,0,13.154,20.24,57.582,57.582,0,0,0,22.014,12.54q13.22,4.29,31.079,4.3a101.9,101.9,0,0,0,30.875-4.43,67.432,67.432,0,0,0,23.991-13.09,58.75,58.75,0,0,0,15.539-21.33q5.521-12.675,5.521-29.04V969.565q0-9.814.068-20.651t0.477-21.469a88.629,88.629,0,0,1,.886-10.019,14.372,14.372,0,0,1,1.908-5.657,6.094,6.094,0,0,1,3.272-2.522,20.685,20.685,0,0,1,5.112-.749Zm127.259,12.472q11.109,10.428,11.11,28.966a70.863,70.863,0,0,1-.682,9.61,40.483,40.483,0,0,1-2.658,9.815,39.993,39.993,0,0,1-5.453,9.337,36.364,36.364,0,0,1-9,8.111,55.231,55.231,0,0,1-13.359,6.134,85.629,85.629,0,0,1-18.47,3.476l-0.681,2.045a8.916,8.916,0,0,1,1.363,2.454q0.817,1.9,1.226,3a120.62,120.62,0,0,0,27.944-3.205,70.651,70.651,0,0,0,23.923-10.36,53.719,53.719,0,0,0,16.7-18.4q6.269-11.246,6.271-27.467a45.277,45.277,0,0,0-3.476-18.129,32.7,32.7,0,0,0-11.042-13.563q-7.564-5.522-19.424-8.452T465.1,900.591q-6.679,0-12.063.205t-10.292.409q-4.906.2-9.95,0.341t-10.9.136q-2.183,0-6.748-.136t-9.2-.409l-11.723-.546v7.089l8.861,0.545a24.3,24.3,0,0,1,5.043.682,6.525,6.525,0,0,1,3.34,2.044,10.807,10.807,0,0,1,2.044,4.158,49.533,49.533,0,0,1,1.3,7.02q0.135,0.817.341,4.771t0.409,9.541q0.2,5.592.341,12.132t0.136,12.4v40.892q0,18.945-.2,31.08t-0.477,17.99q-0.274,8.055-3.544,10.84a14.126,14.126,0,0,1-8.724,3.07l-11.178.82v7.08l15.131-.41q6-.135,11.586-0.27t7.906-.13q1.77,0,4.43.06c1.772,0.05,3.726.09,5.862,0.14s4.338,0.09,6.611.14,4.5,0.06,6.679.06l16.358,0.41v-7.08l-14.449-.55a19.436,19.436,0,0,1-5.112-.82,7.254,7.254,0,0,1-3.476-2.32,11.452,11.452,0,0,1-2.113-4.29,33.594,33.594,0,0,1-1.022-6.75q-0.274-5.175-.409-16.9t-0.136-32.17V960.978q0-5.726.068-12.882t0.2-14.244q0.135-7.086.273-13.359t0.272-10.223q1.908-.135,4.226-0.273t4.566-.2q2.25-.067,4.158-0.069h3Q478.321,909.724,489.433,920.152Zm159.65,0q11.109,10.428,11.11,28.966a70.863,70.863,0,0,1-.682,9.61,40.483,40.483,0,0,1-2.658,9.815,40.024,40.024,0,0,1-5.452,9.337,36.387,36.387,0,0,1-9,8.111,55.213,55.213,0,0,1-13.359,6.134,85.629,85.629,0,0,1-18.47,3.476l-0.681,2.045a8.89,8.89,0,0,1,1.363,2.454q0.818,1.9,1.227,3a120.632,120.632,0,0,0,27.944-3.205,70.654,70.654,0,0,0,23.922-10.36,53.709,53.709,0,0,0,16.7-18.4q6.268-11.246,6.271-27.467a45.277,45.277,0,0,0-3.476-18.129A32.7,32.7,0,0,0,672.8,911.974q-7.566-5.522-19.425-8.452t-28.625-2.931q-6.681,0-12.064.205t-10.291.409q-4.908.2-9.951,0.341t-10.9.136q-2.183,0-6.748-.136t-9.2-.409l-11.723-.546v7.089l8.861,0.545a24.29,24.29,0,0,1,5.043.682,6.525,6.525,0,0,1,3.34,2.044,10.807,10.807,0,0,1,2.045,4.158,49.821,49.821,0,0,1,1.295,7.02q0.134,0.817.34,4.771t0.409,9.541q0.206,5.592.341,12.132t0.136,12.4v40.892q0,18.945-.2,31.08T575,1050.94q-0.274,8.055-3.544,10.84a14.126,14.126,0,0,1-8.724,3.07l-11.178.82v7.08l15.131-.41q6-.135,11.586-0.27t7.906-.13q1.77,0,4.431.06c1.772,0.05,3.725.09,5.861,0.14s4.339,0.09,6.611.14,4.5,0.06,6.679.06l16.358,0.41v-7.08l-14.449-.55a19.436,19.436,0,0,1-5.112-.82,7.254,7.254,0,0,1-3.476-2.32,11.482,11.482,0,0,1-2.113-4.29,33.594,33.594,0,0,1-1.022-6.75q-0.274-5.175-.409-16.9t-0.136-32.17V960.978q0-5.726.068-12.882t0.2-14.244q0.135-7.086.273-13.359t0.273-10.223q1.906-.135,4.225-0.273t4.567-.2q2.248-.067,4.157-0.069h3Q637.971,909.724,649.083,920.152Zm76.1,103.6a78.1,78.1,0,0,0,18.061,26.03,85.384,85.384,0,0,0,27.808,17.52,96.286,96.286,0,0,0,35.782,6.41,117.846,117.846,0,0,0,26.308-2.93,112.742,112.742,0,0,0,24.263-8.52,104.93,104.93,0,0,0,21.061-13.57,88.758,88.758,0,0,0,16.561-18.06,84.811,84.811,0,0,0,10.837-22.01,82.04,82.04,0,0,0,3.885-25.56,85.509,85.509,0,0,0-11.314-42.734,83.774,83.774,0,0,0-13.154-17.243,81.214,81.214,0,0,0-17.311-13.29,88.045,88.045,0,0,0-20.924-8.588,90.8,90.8,0,0,0-23.855-3.067,112.032,112.032,0,0,0-26.444,3.135,113.164,113.164,0,0,0-24.536,9,109.357,109.357,0,0,0-21.4,14.176,93,93,0,0,0-16.9,18.743,90.322,90.322,0,0,0-11.11,22.628,81.994,81.994,0,0,0-4.021,25.831A80.478,80.478,0,0,0,725.18,1023.75Zm25.7-73.473q5.792-13.833,15.13-22.355a56.318,56.318,0,0,1,21.2-12.268,79.193,79.193,0,0,1,23.991-3.749,71.758,71.758,0,0,1,17.72,2.25,72.545,72.545,0,0,1,16.971,6.679,73.675,73.675,0,0,1,15.2,11.109,69.871,69.871,0,0,1,12.268,15.472,79.054,79.054,0,0,1,8.11,19.7,92.3,92.3,0,0,1,2.931,23.991q0,15.266-3.748,26.377a64.26,64.26,0,0,1-9.747,18.88,52.617,52.617,0,0,1-13.563,12.54A73.063,73.063,0,0,1,842,1056.33a77.614,77.614,0,0,1-14.994,3.61,96.042,96.042,0,0,1-12.4.95,60.26,60.26,0,0,1-12.2-1.5,72.945,72.945,0,0,1-14.927-4.97,77.324,77.324,0,0,1-15.335-9.27,64.8,64.8,0,0,1-13.563-14.31,74.689,74.689,0,0,1-9.746-20.04,85.634,85.634,0,0,1-3.749-26.513Q745.081,964.115,750.875,950.277Zm234.934,10.7q0-5.726.068-12.882t0.205-14.244q0.134-7.086.273-13.359t0.272-10.223h3q1.5,0,3-.137,2.454-.134,5.043-0.136h4.5a75.017,75.017,0,0,1,18.06,2.045,40.495,40.495,0,0,1,14.24,6.406,29.725,29.725,0,0,1,9.34,11.246,37.6,37.6,0,0,1,3.34,16.562q0,21.54-10.02,32.647t-31.01,11.382h-4.16q-2.52,0-5.382-.068t-5.725-.205q-2.864-.133-5.044-0.273V960.978Zm0.273,83.222c-0.092-2.77-.16-6.23-0.205-10.36s-0.068-8.95-.068-14.45v-19.02l23.171-.816a89.865,89.865,0,0,1,10.5,11.516q5.85,7.44,12.4,16.84,1.5,1.9,2.93,3.81c0.96,1.28,1.93,2.68,2.93,4.23q6.555,9.135,12.41,16.22a91.919,91.919,0,0,0,11.72,12,47.5,47.5,0,0,0,12,7.49,33.556,33.556,0,0,0,13.22,2.59,94.922,94.922,0,0,0,12.4-.82,101.414,101.414,0,0,0,12.14-2.31l-0.28-6.27h-3a27.326,27.326,0,0,1-14.24-4.23,77.033,77.033,0,0,1-13.84-10.84,153.957,153.957,0,0,1-13.22-14.65q-6.4-8.04-12.27-15.67-5.715-7.365-10.63-13.29a120.373,120.373,0,0,0-10.09-10.842,82.133,82.133,0,0,0,15.2-7.361,50.787,50.787,0,0,0,21.47-26.444A59.311,59.311,0,0,0,1074,940.94a37.43,37.43,0,0,0-3.47-16.017,34.508,34.508,0,0,0-10.64-12.881,54.326,54.326,0,0,0-18.06-8.588,93.273,93.273,0,0,0-25.62-3.135q-7.23,0-13.23.2t-11.718.409q-5.725.205-11.587,0.341T967,901.409q-2.183,0-5.725-.136T953.912,901q-3.818-.134-7.5-0.272t-6.134-.137v7.089l8.86,0.545a23.171,23.171,0,0,1,4.976.682,6.141,6.141,0,0,1,3.2,2.044,11.468,11.468,0,0,1,1.977,4.158,49.821,49.821,0,0,1,1.295,7.02q0.134,0.817.34,4.771t0.409,9.541q0.205,5.592.341,12.132t0.136,12.4v40.892q0,18.945-.34,31.08t-0.614,17.99q-0.546,8.055-3,10.7c-1.635,1.78-4.136,2.75-7.5,2.93l-12.4,1.1v7.08q3.4,0,8.451-.13c3.361-.09,6.724-0.19,10.087-0.28s6.5-.18,9.406-0.27,5.043-.13,6.406-0.13q3.543,0,9.133.13t11.382,0.27c3.862,0.09,7.561.19,11.111,0.28s6.31,0.13,8.31.13v-7.08l-13.9-.55a22.55,22.55,0,0,1-5.248-.75,7.8,7.8,0,0,1-3.544-2.11,9.749,9.749,0,0,1-2.181-4.23,35.886,35.886,0,0,1-1.022-7.09Q986.217,1048.36,986.082,1044.2ZM1186.19,911.633v90.237q0,10.1-.07,17.93t-0.14,13.76c-0.05,3.96-.13,7.36-0.27,10.23s-0.3,5.25-.48,7.15a35.462,35.462,0,0,1-1.23,7.02,12.114,12.114,0,0,1-2.11,4.23,6.791,6.791,0,0,1-3.2,2.18,17.728,17.728,0,0,1-4.5.75l-15.95.55v7.08q3.27,0,8.79-.13c3.68-.09,7.45-0.19,11.32-0.28s7.47-.18,10.83-0.27,5.77-.13,7.23-0.13q1.77,0,4.5.06c1.81,0.05,3.79.09,5.93,0.14s4.38,0.09,6.74.14,4.68,0.06,6.96.06l16.9,0.41v-7.08l-14.18-.55a29.241,29.241,0,0,1-5.31-.68,8.642,8.642,0,0,1-3.96-2.05,9.594,9.594,0,0,1-2.52-4.22,26.712,26.712,0,0,1-1.02-7.23c-0.09-3.08-.16-5.93-0.21-8.52s-0.06-5.38-.06-8.38V911.633h17.85a161.561,161.561,0,0,1,19.97,1.022q7.98,1.023,11.52,2.522a15.457,15.457,0,0,1,4.64,3.885,23.979,23.979,0,0,1,3.13,5.111,36.415,36.415,0,0,1,1.98,5.521c0.5,1.864.88,3.568,1.16,5.112l1.36,8.178,9.27-.408q0-2.863-.07-8.315c-0.05-3.634-.11-7.5-0.2-11.587s-0.21-8.064-.34-11.927-0.3-6.973-.48-9.338l-3.41-1.5a61.624,61.624,0,0,1-6.61.886q-3.885.342-9.34,0.477t-12.61.136h-81.99q-9.135,0-15.61-.2c-4.31-.136-8.02-0.317-11.11-0.545s-5.72-.477-7.9-0.75-4.14-.59-5.86-0.954l-3.27,2.453c-0.28,2.092-.57,4.386-0.89,6.884s-0.64,5.09-.95,7.77-0.66,5.363-1.03,8.042-0.73,5.248-1.09,7.7q-0.4,3.137-.75,6c-0.23,1.908-.43,3.5-0.61,4.771l9.13,0.408,1.09-7.5a34.563,34.563,0,0,1,4.16-11.791,20.258,20.258,0,0,1,9.34-8.519,45.4,45.4,0,0,1,10.49-2.522,133.414,133.414,0,0,1,18.54-1.022h16.5ZM1372.2,1065.12a19.022,19.022,0,0,1-4.97-.82,8.015,8.015,0,0,1-3.55-2.25,10.313,10.313,0,0,1-2.18-4.29,34.924,34.924,0,0,1-1.02-6.82q-0.27-5.175-.41-16.9t-0.13-32.17V960.978q0-5.86.13-12.4t0.34-12.2q0.21-5.655.34-9.61a44.6,44.6,0,0,1,.28-4.634,49.059,49.059,0,0,1,1.29-6.884,11.428,11.428,0,0,1,1.98-4.158,6.561,6.561,0,0,1,3.13-2.112,18.838,18.838,0,0,1,4.77-.75l11.73-.545v-7.089q-8.19.276-16.84,0.546t-18.88.272c-1.36,0-3.66-.021-6.88-0.068s-6.7-.113-10.43-0.2-7.41-.181-11.04-0.273-6.59-.181-8.86-0.273v7.089l12.27,0.545a19.368,19.368,0,0,1,4.91.75,7.016,7.016,0,0,1,3.2,2.112,10.841,10.841,0,0,1,2.04,4.158,62.38,62.38,0,0,1,1.43,6.884c0.09,0.545.21,2.136,0.35,4.771s0.24,5.816.34,9.541,0.18,7.77.27,12.132,0.14,8.5.14,12.4v40.892q0,18.945-.14,31.08t-0.41,17.99a34.924,34.924,0,0,1-1.02,6.82,10.313,10.313,0,0,1-2.18,4.29,7.959,7.959,0,0,1-3.68,2.25,21.261,21.261,0,0,1-5.25.82l-12.54.55v7.08l10.7-.27c3.59-.09,7.06-0.18,10.43-0.27s6.54-.16,9.54-0.21,5.63-.06,7.9-0.06c1.46,0,3.59.02,6.41,0.06s5.86,0.12,9.13.21,6.61,0.18,10.02.27,6.43,0.18,9.07.27v-7.08Zm222.21,8.86a18.981,18.981,0,0,1,2.46-.82c0.99-.27,2.06-0.52,3.2-0.75s2.22-.45,3.27-0.68,1.98-.43,2.79-0.61c-0.18-3.45-.31-6.73-0.4-9.82s-0.14-6.45-.14-10.08V970.179q0-7.566.14-15.744t0.27-16.494q0.135-8.313.41-15.812,0.27-7.9,2.86-10.769t8.59-3.135l9.81-.545v-7.089l-12.95.409c-1.72.092-3.45,0.16-5.18,0.205s-3.36.091-4.9,0.136-2.96.068-4.23,0.068h-2.86q-3,0-6.95-.068t-8.18-.2q-4.23-.135-8.45-0.273t-7.77-.273v7.089l11.99,0.545a24.986,24.986,0,0,1,4.98.682,8.282,8.282,0,0,1,3.68,2.044,9.479,9.479,0,0,1,2.38,4.158,27.662,27.662,0,0,1,.96,7.02q0.27,7.36.47,16.63t0.41,18.4q0.21,9.134.28,16.971t0.06,12.472v51.256L1458.24,900.591q-1.23.138-3.27,0.273c-1.37.092-2.75,0.183-4.16,0.273s-2.8.159-4.16,0.2-2.45.068-3.27,0.068q-2.865,0-6.75-.136l-7.9-.273c-2.69-.089-5.25-0.181-7.71-0.272s-4.49-.137-6.13-0.137v7.089l8.18,0.545a22.594,22.594,0,0,1,6.27,1.431,14.554,14.554,0,0,1,5.25,3.476,17.024,17.024,0,0,1,3.61,5.93,26.568,26.568,0,0,1,1.5,8.656q0.135,4.089.27,9.405t0.21,10.973q0.06,5.658.13,11.45t0.07,10.973v45.8q0,5.865-.07,11.86c-0.05,4-.13,7.95-0.27,11.86s-0.34,7.54-.61,10.9a55.237,55.237,0,0,1-.82,7.16,9.18,9.18,0,0,1-1.77,4.09,6.409,6.409,0,0,1-3.21,1.98,23.27,23.27,0,0,1-4.97.68l-10.36.82v7.08c1.18,0,3.15-.04,5.93-0.13s5.7-.19,8.79-0.28,6.04-.18,8.86-0.27,4.91-.13,6.27-0.13q3.135,0,7.43.13t8.72,0.27c2.95,0.09,5.8.19,8.52,0.28s5,0.13,6.82.13v-7.08l-12-.55a24.527,24.527,0,0,1-4.84-.68,8.193,8.193,0,0,1-3.68-2.05,10.007,10.007,0,0,1-2.45-4.22,26.712,26.712,0,0,1-1.02-7.23c-0.19-5.27-.34-10.17-0.48-14.72s-0.25-9.2-.34-13.97-0.16-9.84-.21-15.2-0.06-11.539-.06-18.537V929.9Zm125.69-8.86a19.022,19.022,0,0,1-4.97-.82,7.927,7.927,0,0,1-3.54-2.25,10.2,10.2,0,0,1-2.19-4.29,34.924,34.924,0,0,1-1.02-6.82q-0.27-5.175-.41-16.9t-0.13-32.17V960.978q0-5.86.13-12.4t0.34-12.2q0.21-5.655.34-9.61c0.09-2.634.19-4.178,0.28-4.634a49.059,49.059,0,0,1,1.29-6.884,11.428,11.428,0,0,1,1.98-4.158,6.561,6.561,0,0,1,3.13-2.112,18.914,18.914,0,0,1,4.77-.75l11.73-.545v-7.089q-8.175.276-16.84,0.546t-18.88.272c-1.36,0-3.66-.021-6.88-0.068s-6.7-.113-10.43-0.2-7.41-.181-11.04-0.273-6.59-.181-8.86-0.273v7.089l12.27,0.545a19.368,19.368,0,0,1,4.91.75,7.016,7.016,0,0,1,3.2,2.112,10.841,10.841,0,0,1,2.04,4.158,64.478,64.478,0,0,1,1.44,6.884c0.08,0.545.2,2.136,0.34,4.771s0.25,5.816.34,9.541,0.18,7.77.27,12.132,0.14,8.5.14,12.4v40.892q0,18.945-.14,31.08t-0.41,17.99a34.924,34.924,0,0,1-1.02,6.82,10.313,10.313,0,0,1-2.18,4.29,7.959,7.959,0,0,1-3.68,2.25,21.261,21.261,0,0,1-5.25.82l-12.54.55v7.08l10.7-.27c3.59-.09,7.06-0.18,10.43-0.27s6.54-.16,9.54-0.21,5.63-.06,7.9-0.06c1.46,0,3.59.02,6.41,0.06s5.86,0.12,9.13.21,6.62,0.18,10.02.27,6.43,0.18,9.07.27v-7.08Z"/>
</svg>
